<?xml version="1.0" standalone="no"?>
<!DOCTYPE svg PUBLIC "-//W3C//DTD SVG 20010904//EN"
 "http://www.w3.org/TR/2001/REC-SVG-20010904/DTD/svg10.dtd">
<svg version="1.0" xmlns="http://www.w3.org/2000/svg"
 width="700.000000pt" height="700.000000pt" viewBox="0 0 700.000000 700.000000"
 preserveAspectRatio="xMidYMid meet">
<metadata>
Created by potrace 1.11, written by Peter Selinger 2001-2013
</metadata>
<g transform="translate(0.000000,700.000000) scale(0.100000,-0.100000)"
fill="#000000" stroke="none">
<path d="M3299 6996 c-2 -2 -49 -7 -103 -10 -55 -4 -102 -9 -105 -10 -3 -2
-37 -7 -76 -11 -38 -4 -72 -8 -75 -10 -3 -2 -23 -6 -45 -9 -114 -17 -294 -63
-296 -74 0 -4 -2 -25 -3 -47 -2 -22 -6 -85 -11 -140 -4 -55 -9 -116 -10 -135
-2 -19 -6 -78 -10 -130 -16 -191 -8 -904 10 -999 2 -11 6 -55 10 -98 3 -43 8
-91 10 -108 2 -16 7 -52 10 -80 8 -66 14 -108 25 -175 5 -30 12 -71 15 -90 39
-241 98 -482 187 -762 22 -71 43 -128 47 -128 3 0 35 46 70 103 86 135 264
375 387 517 126 146 381 401 521 521 59 51 110 95 113 98 4 5 149 121 230 184
59 46 212 156 300 216 58 39 110 74 115 79 6 4 51 32 100 62 50 30 92 57 95
60 6 7 138 86 190 113 19 11 64 37 101 57 73 43 394 205 482 244 33 14 56 30
52 36 -10 17 -193 142 -317 218 -355 217 -833 399 -1195 456 -33 5 -116 19
-123 21 -3 1 -41 5 -85 9 -44 5 -89 10 -100 13 -23 5 -511 14 -516 9z"/>
<path d="M2120 6716 c-105 -43 -356 -176 -485 -257 -694 -435 -1197 -1082
-1461 -1877 -43 -131 -52 -166 -42 -176 7 -6 117 -82 243 -168 579 -392 1106
-659 1685 -855 114 -38 345 -106 405 -119 11 -2 47 -10 80 -18 33 -8 62 -13
64 -11 2 2 5 19 7 37 2 18 6 42 9 54 25 108 24 135 -12 214 -74 160 -98 223
-169 437 -74 225 -140 482 -189 738 -28 148 -68 432 -80 580 -4 39 -8 86 -10
105 -26 227 -26 932 0 1172 7 65 14 168 12 167 -1 0 -27 -11 -57 -23z"/>
<path d="M5855 5909 c-66 -31 -174 -83 -239 -114 -157 -75 -347 -177 -527
-285 -130 -79 -316 -197 -329 -210 -3 -3 -25 -18 -50 -34 -43 -28 -333 -242
-375 -277 -243 -203 -304 -259 -486 -443 l-137 -139 66 -56 c37 -30 76 -64 86
-73 11 -10 25 -18 30 -19 6 0 18 -2 26 -3 8 -2 47 -6 86 -10 39 -4 80 -8 90
-10 11 -2 44 -7 74 -11 30 -4 64 -9 75 -11 11 -2 49 -9 85 -15 273 -46 845
-214 1085 -318 11 -5 36 -16 55 -24 19 -9 58 -24 85 -35 71 -28 166 -72 350
-162 315 -154 604 -322 902 -526 83 -57 154 -104 156 -104 25 0 43 531 25 755
-61 767 -410 1557 -927 2100 -87 92 -71 90 -206 24z"/>
<path d="M29 3948 c0 -13 -2 -32 -5 -43 -12 -61 -19 -216 -19 -415 1 -217 5
-296 26 -445 23 -167 38 -242 80 -404 48 -188 96 -333 164 -496 42 -102 152
-325 190 -385 14 -22 25 -42 25 -45 0 -16 195 -295 276 -395 106 -131 124
-153 201 -232 53 -56 56 -57 81 -44 15 8 77 37 137 66 454 215 722 365 1060
593 50 34 95 65 100 69 6 5 64 48 130 96 110 81 306 238 393 316 136 120 412
394 412 408 0 3 -28 30 -62 59 -35 29 -71 61 -80 70 -9 9 -41 20 -70 24 -29 3
-69 8 -88 10 -167 21 -363 54 -500 85 -52 12 -103 23 -113 25 -107 22 -544
162 -717 230 -299 117 -598 259 -935 444 -113 63 -309 185 -478 298 -109 73
-200 133 -203 133 -2 0 -4 -10 -5 -22z"/>
<path d="M4385 3748 c-3 -13 -12 -63 -20 -112 l-15 -89 35 -76 c106 -237 238
-627 291 -861 4 -19 9 -39 10 -45 12 -46 56 -257 60 -285 2 -19 9 -55 14 -80
5 -25 12 -65 16 -90 3 -25 8 -52 9 -60 1 -8 6 -41 10 -74 3 -32 8 -68 10 -80
5 -30 13 -98 20 -186 4 -41 8 -91 11 -110 19 -168 26 -821 11 -1030 -13 -184
-18 -234 -23 -269 -5 -33 -5 -33 23 -27 49 12 346 162 470 237 727 443 1259
1121 1519 1939 l43 135 -22 17 c-86 67 -475 324 -647 428 -408 246 -977 503
-1390 626 -102 31 -328 91 -364 98 -15 3 -35 8 -46 11 -15 5 -21 1 -25 -17z"/>
<path d="M4058 2821 l-97 -36 -57 -80 c-175 -244 -447 -544 -704 -775 -52 -47
-97 -87 -100 -90 -12 -12 -233 -190 -300 -242 -331 -255 -752 -519 -1135 -711
-61 -31 -155 -77 -210 -102 l-100 -46 30 -25 c55 -46 259 -181 359 -238 457
-264 950 -419 1466 -464 171 -14 590 -7 716 13 16 3 43 7 59 10 17 2 48 7 70
11 22 3 94 17 160 31 66 14 132 28 148 30 41 8 38 -4 52 204 4 57 8 114 10
129 27 208 26 942 0 1150 -2 19 -7 64 -10 100 -3 36 -8 81 -10 100 -3 19 -7
58 -10 85 -3 28 -8 61 -10 75 -3 14 -7 39 -9 55 -8 53 -18 119 -22 140 -2 11
-9 47 -15 80 -6 33 -13 70 -15 83 -36 192 -136 546 -155 549 -8 0 -58 -15
-111 -36z"/>
</g>
</svg>
